<svg width="1440" height="431" viewBox="0 0 1440 431" fill="none" xmlns="http://www.w3.org/2000/svg">
<rect width="1440" height="430.26" rx="8" fill="#D9D9D9"/>
<path d="M648.357 204.909V226H645.175V204.909H648.357ZM652.744 226V210.182H655.7V212.756H655.895C656.225 211.884 656.764 211.205 657.512 210.717C658.26 210.223 659.156 209.976 660.2 209.976C661.257 209.976 662.143 210.223 662.857 210.717C663.578 211.212 664.11 211.891 664.453 212.756H664.618C664.996 211.912 665.596 211.239 666.42 210.738C667.244 210.23 668.226 209.976 669.365 209.976C670.8 209.976 671.971 210.426 672.877 211.325C673.79 212.224 674.247 213.58 674.247 215.393V226H671.168V215.681C671.168 214.61 670.876 213.834 670.292 213.354C669.709 212.873 669.012 212.633 668.202 212.633C667.199 212.633 666.42 212.942 665.864 213.56C665.308 214.171 665.03 214.957 665.03 215.918V226H661.961V215.485C661.961 214.627 661.693 213.937 661.158 213.415C660.622 212.894 659.925 212.633 659.067 212.633C658.484 212.633 657.945 212.787 657.45 213.096C656.963 213.398 656.568 213.821 656.266 214.363C655.971 214.905 655.823 215.533 655.823 216.248V226H652.744ZM682.977 226.35C681.975 226.35 681.069 226.165 680.258 225.794C679.448 225.416 678.806 224.871 678.333 224.157C677.866 223.443 677.632 222.567 677.632 221.531C677.632 220.638 677.804 219.903 678.147 219.327C678.491 218.75 678.954 218.293 679.538 217.957C680.121 217.621 680.773 217.367 681.494 217.195C682.215 217.023 682.95 216.893 683.698 216.804C684.646 216.694 685.414 216.605 686.005 216.536C686.595 216.46 687.024 216.34 687.292 216.175C687.56 216.011 687.694 215.743 687.694 215.372V215.3C687.694 214.401 687.44 213.704 686.932 213.21C686.431 212.715 685.682 212.468 684.687 212.468C683.65 212.468 682.833 212.698 682.236 213.158C681.645 213.611 681.237 214.116 681.01 214.672L678.116 214.013C678.46 213.052 678.961 212.276 679.62 211.685C680.286 211.088 681.051 210.656 681.916 210.388C682.782 210.113 683.691 209.976 684.646 209.976C685.277 209.976 685.947 210.051 686.654 210.202C687.368 210.347 688.034 210.614 688.652 211.006C689.276 211.397 689.788 211.957 690.186 212.684C690.584 213.405 690.783 214.342 690.783 215.496V226H687.776V223.837H687.653C687.454 224.236 687.155 224.627 686.757 225.011C686.358 225.396 685.847 225.715 685.222 225.969C684.597 226.223 683.849 226.35 682.977 226.35ZM683.647 223.879C684.498 223.879 685.226 223.71 685.83 223.374C686.441 223.038 686.904 222.598 687.22 222.056C687.543 221.507 687.704 220.92 687.704 220.295V218.256C687.594 218.366 687.381 218.469 687.066 218.565C686.757 218.654 686.403 218.733 686.005 218.801C685.607 218.863 685.219 218.922 684.841 218.977C684.464 219.025 684.148 219.066 683.894 219.1C683.296 219.176 682.751 219.303 682.256 219.481C681.769 219.66 681.378 219.917 681.082 220.254C680.794 220.583 680.65 221.022 680.65 221.572C680.65 222.334 680.931 222.911 681.494 223.302C682.057 223.686 682.775 223.879 683.647 223.879ZM701.517 232.261C700.26 232.261 699.179 232.097 698.273 231.767C697.373 231.438 696.639 231.002 696.069 230.459C695.499 229.917 695.073 229.323 694.792 228.678L697.439 227.586C697.624 227.888 697.871 228.207 698.18 228.544C698.496 228.887 698.922 229.179 699.457 229.419C699.999 229.659 700.696 229.779 701.548 229.779C702.715 229.779 703.679 229.495 704.441 228.925C705.203 228.362 705.585 227.462 705.585 226.227V223.116H705.389C705.203 223.453 704.936 223.827 704.586 224.239C704.242 224.651 703.769 225.008 703.164 225.31C702.56 225.612 701.774 225.763 700.806 225.763C699.557 225.763 698.431 225.471 697.428 224.888C696.433 224.297 695.643 223.429 695.06 222.282C694.483 221.129 694.195 219.711 694.195 218.029C694.195 216.347 694.48 214.905 695.049 213.704C695.626 212.502 696.416 211.582 697.418 210.944C698.42 210.299 699.557 209.976 700.827 209.976C701.808 209.976 702.601 210.141 703.206 210.47C703.81 210.793 704.28 211.17 704.616 211.603C704.96 212.036 705.224 212.417 705.409 212.746H705.636V210.182H708.653V226.35C708.653 227.71 708.338 228.825 707.706 229.697C707.074 230.569 706.22 231.214 705.142 231.633C704.071 232.052 702.862 232.261 701.517 232.261ZM701.486 223.209C702.371 223.209 703.12 223.003 703.731 222.591C704.349 222.172 704.816 221.575 705.131 220.799C705.454 220.017 705.615 219.08 705.615 217.988C705.615 216.924 705.458 215.987 705.142 215.176C704.826 214.366 704.362 213.735 703.751 213.282C703.14 212.822 702.385 212.592 701.486 212.592C700.559 212.592 699.787 212.832 699.169 213.312C698.551 213.786 698.084 214.432 697.768 215.249C697.459 216.066 697.305 216.979 697.305 217.988C697.305 219.025 697.463 219.934 697.778 220.717C698.094 221.5 698.561 222.111 699.179 222.55C699.804 222.989 700.573 223.209 701.486 223.209ZM719.601 226.319C718.042 226.319 716.7 225.986 715.574 225.32C714.455 224.647 713.59 223.703 712.979 222.488C712.375 221.266 712.072 219.835 712.072 218.194C712.072 216.574 712.375 215.146 712.979 213.91C713.59 212.674 714.441 211.709 715.533 211.016C716.631 210.323 717.915 209.976 719.384 209.976C720.277 209.976 721.142 210.123 721.979 210.419C722.817 210.714 723.569 211.177 724.235 211.809C724.901 212.441 725.426 213.261 725.81 214.27C726.195 215.273 726.387 216.491 726.387 217.926V219.018H713.813V216.711H723.37C723.37 215.901 723.205 215.183 722.875 214.559C722.546 213.927 722.082 213.429 721.485 213.065C720.895 212.701 720.201 212.52 719.405 212.52C718.54 212.52 717.785 212.732 717.139 213.158C716.501 213.577 716.006 214.126 715.656 214.806C715.313 215.479 715.141 216.21 715.141 216.999V218.801C715.141 219.859 715.327 220.758 715.697 221.5C716.075 222.241 716.6 222.808 717.273 223.199C717.946 223.583 718.732 223.776 719.631 223.776C720.215 223.776 720.747 223.693 721.228 223.528C721.708 223.357 722.124 223.103 722.474 222.766C722.824 222.43 723.092 222.015 723.277 221.52L726.191 222.045C725.958 222.904 725.539 223.655 724.935 224.301C724.338 224.939 723.586 225.437 722.68 225.794C721.78 226.144 720.754 226.319 719.601 226.319ZM740.558 216.608V226H737.478V204.909H740.516V212.756H740.712C741.083 211.905 741.649 211.229 742.411 210.728C743.173 210.226 744.169 209.976 745.398 209.976C746.482 209.976 747.43 210.199 748.24 210.645C749.057 211.092 749.689 211.757 750.135 212.643C750.588 213.522 750.815 214.62 750.815 215.939V226H747.735V216.309C747.735 215.149 747.437 214.25 746.839 213.611C746.242 212.966 745.411 212.643 744.347 212.643C743.62 212.643 742.967 212.798 742.391 213.107C741.821 213.415 741.371 213.869 741.042 214.466C740.719 215.056 740.558 215.77 740.558 216.608ZM761.741 226.319C760.183 226.319 758.84 225.986 757.714 225.32C756.595 224.647 755.73 223.703 755.119 222.488C754.515 221.266 754.213 219.835 754.213 218.194C754.213 216.574 754.515 215.146 755.119 213.91C755.73 212.674 756.582 211.709 757.673 211.016C758.772 210.323 760.056 209.976 761.525 209.976C762.417 209.976 763.282 210.123 764.12 210.419C764.958 210.714 765.709 211.177 766.375 211.809C767.041 212.441 767.567 213.261 767.951 214.27C768.335 215.273 768.528 216.491 768.528 217.926V219.018H755.953V216.711H765.51C765.51 215.901 765.346 215.183 765.016 214.559C764.686 213.927 764.223 213.429 763.626 213.065C763.035 212.701 762.342 212.52 761.545 212.52C760.68 212.52 759.925 212.732 759.28 213.158C758.641 213.577 758.147 214.126 757.797 214.806C757.454 215.479 757.282 216.21 757.282 216.999V218.801C757.282 219.859 757.467 220.758 757.838 221.5C758.216 222.241 758.741 222.808 759.414 223.199C760.087 223.583 760.873 223.776 761.772 223.776C762.356 223.776 762.888 223.693 763.368 223.528C763.849 223.357 764.264 223.103 764.614 222.766C764.964 222.43 765.232 222.015 765.418 221.52L768.332 222.045C768.099 222.904 767.68 223.655 767.076 224.301C766.478 224.939 765.727 225.437 764.82 225.794C763.921 226.144 762.895 226.319 761.741 226.319ZM771.944 226V210.182H774.92V212.695H775.085C775.373 211.843 775.882 211.174 776.609 210.686C777.344 210.192 778.175 209.945 779.101 209.945C779.294 209.945 779.52 209.952 779.781 209.966C780.049 209.979 780.258 209.996 780.409 210.017V212.962C780.286 212.928 780.066 212.89 779.75 212.849C779.434 212.801 779.119 212.777 778.803 212.777C778.075 212.777 777.426 212.931 776.856 213.24C776.293 213.542 775.847 213.965 775.518 214.507C775.188 215.043 775.023 215.654 775.023 216.34V226H771.944ZM789.325 226.319C787.767 226.319 786.424 225.986 785.298 225.32C784.179 224.647 783.314 223.703 782.703 222.488C782.099 221.266 781.797 219.835 781.797 218.194C781.797 216.574 782.099 215.146 782.703 213.91C783.314 212.674 784.166 211.709 785.257 211.016C786.356 210.323 787.64 209.976 789.109 209.976C790.001 209.976 790.866 210.123 791.704 210.419C792.542 210.714 793.293 211.177 793.959 211.809C794.625 212.441 795.151 213.261 795.535 214.27C795.919 215.273 796.112 216.491 796.112 217.926V219.018H783.537V216.711H793.094C793.094 215.901 792.93 215.183 792.6 214.559C792.27 213.927 791.807 213.429 791.21 213.065C790.619 212.701 789.926 212.52 789.129 212.52C788.264 212.52 787.509 212.732 786.864 213.158C786.225 213.577 785.731 214.126 785.381 214.806C785.038 215.479 784.866 216.21 784.866 216.999V218.801C784.866 219.859 785.051 220.758 785.422 221.5C785.8 222.241 786.325 222.808 786.998 223.199C787.671 223.583 788.457 223.776 789.356 223.776C789.94 223.776 790.472 223.693 790.952 223.528C791.433 223.357 791.848 223.103 792.198 222.766C792.548 222.43 792.816 222.015 793.002 221.52L795.916 222.045C795.683 222.904 795.264 223.655 794.66 224.301C794.062 224.939 793.311 225.437 792.404 225.794C791.505 226.144 790.479 226.319 789.325 226.319Z" fill="#7E7E7E"/>
</svg>
