<svg width="1244" height="91" viewBox="0 0 1244 91" fill="none" xmlns="http://www.w3.org/2000/svg">
<rect width="1243.39" height="91" rx="45" fill="#252525"/>
<path d="M32 57.5V25.5H51.8438V29.6563H36.8281V39.4063H50.4219V43.5469H36.8281V57.5H32Z" fill="#A2A2A2"/>
<path d="M57.4062 57.5V33.5H62.0781V57.5H57.4062ZM59.7656 29.7969C58.9531 29.7969 58.2552 29.526 57.6719 28.9844C57.099 28.4323 56.8125 27.776 56.8125 27.0156C56.8125 26.2448 57.099 25.5885 57.6719 25.0469C58.2552 24.4948 58.9531 24.2188 59.7656 24.2188C60.5781 24.2188 61.2708 24.4948 61.8438 25.0469C62.4271 25.5885 62.7188 26.2448 62.7188 27.0156C62.7188 27.776 62.4271 28.4323 61.8438 28.9844C61.2708 29.526 60.5781 29.7969 59.7656 29.7969Z" fill="#A2A2A2"/>
<path d="M78.4258 67C76.5195 67 74.8789 66.75 73.5039 66.25C72.1393 65.75 71.0247 65.0885 70.1602 64.2656C69.2956 63.4427 68.6497 62.5417 68.2227 61.5625L72.2383 59.9063C72.5195 60.3646 72.8945 60.849 73.3633 61.3594C73.8424 61.8802 74.4883 62.3229 75.3008 62.6875C76.1237 63.0521 77.181 63.2344 78.4727 63.2344C80.2435 63.2344 81.707 62.8021 82.8633 61.9375C84.0195 61.0833 84.5977 59.7188 84.5977 57.8438V53.125H84.3008C84.0195 53.6354 83.6133 54.2031 83.082 54.8281C82.5612 55.4531 81.8424 55.9948 80.9258 56.4531C80.0091 56.9115 78.8164 57.1406 77.3477 57.1406C75.4518 57.1406 73.7435 56.6979 72.2227 55.8125C70.7122 54.9167 69.5143 53.599 68.6289 51.8594C67.7539 50.1094 67.3164 47.9583 67.3164 45.4063C67.3164 42.8542 67.7487 40.6667 68.6133 38.8438C69.4883 37.0208 70.6862 35.625 72.207 34.6563C73.7279 33.6771 75.4518 33.1875 77.3789 33.1875C78.8685 33.1875 80.0716 33.4375 80.9883 33.9375C81.9049 34.4271 82.6185 35 83.1289 35.6563C83.6497 36.3125 84.0508 36.8906 84.332 37.3906H84.6758V33.5H89.2539V58.0313C89.2539 60.0938 88.7747 61.7865 87.8164 63.1094C86.8581 64.4323 85.5612 65.4115 83.9258 66.0469C82.3008 66.6823 80.4674 67 78.4258 67ZM78.3789 53.2656C79.7227 53.2656 80.8581 52.9531 81.7852 52.3281C82.7227 51.6927 83.431 50.7865 83.9102 49.6094C84.3997 48.4219 84.6445 47 84.6445 45.3438C84.6445 43.7292 84.4049 42.3073 83.9258 41.0781C83.4466 39.849 82.7435 38.8906 81.8164 38.2031C80.8893 37.5052 79.7435 37.1563 78.3789 37.1563C76.9727 37.1563 75.8008 37.5208 74.8633 38.25C73.9258 38.9688 73.2174 39.9479 72.7383 41.1875C72.2695 42.4271 72.0352 43.8125 72.0352 45.3438C72.0352 46.9167 72.2747 48.2969 72.7539 49.4844C73.2331 50.6719 73.9414 51.599 74.8789 52.2656C75.8268 52.9323 76.9935 53.2656 78.3789 53.2656Z" fill="#A2A2A2"/>
<path d="M95.5195 57.5V33.5H100.004V37.4063H100.301C100.801 36.0833 101.618 35.0521 102.754 34.3125C103.889 33.5625 105.249 33.1875 106.832 33.1875C108.436 33.1875 109.78 33.5625 110.863 34.3125C111.957 35.0625 112.764 36.0938 113.285 37.4063H113.535C114.108 36.125 115.02 35.1042 116.27 34.3438C117.52 33.5729 119.009 33.1875 120.738 33.1875C122.915 33.1875 124.691 33.8698 126.066 35.2344C127.452 36.599 128.145 38.6563 128.145 41.4063V57.5H123.473V41.8438C123.473 40.2188 123.03 39.0417 122.145 38.3125C121.259 37.5833 120.202 37.2188 118.973 37.2188C117.452 37.2188 116.27 37.6875 115.426 38.625C114.582 39.5521 114.16 40.7448 114.16 42.2031V57.5H109.504V41.5469C109.504 40.2448 109.098 39.1979 108.285 38.4063C107.473 37.6146 106.415 37.2188 105.113 37.2188C104.228 37.2188 103.41 37.4531 102.66 37.9219C101.921 38.3802 101.322 39.0208 100.863 39.8438C100.415 40.6667 100.191 41.6198 100.191 42.7031V57.5H95.5195Z" fill="#A2A2A2"/>
<path d="M141.391 58.0313C139.87 58.0313 138.495 57.75 137.266 57.1875C136.036 56.6146 135.062 55.7865 134.344 54.7031C133.635 53.6198 133.281 52.2917 133.281 50.7188C133.281 49.3646 133.542 48.25 134.062 47.375C134.583 46.5 135.286 45.8073 136.172 45.2969C137.057 44.7865 138.047 44.401 139.141 44.1406C140.234 43.8802 141.349 43.6823 142.484 43.5469C143.922 43.3802 145.089 43.2448 145.984 43.1406C146.88 43.026 147.531 42.8438 147.938 42.5938C148.344 42.3438 148.547 41.9375 148.547 41.375V41.2656C148.547 39.901 148.161 38.8438 147.391 38.0938C146.63 37.3438 145.495 36.9688 143.984 36.9688C142.411 36.9688 141.172 37.3177 140.266 38.0156C139.37 38.7031 138.75 39.4688 138.406 40.3125L134.016 39.3125C134.536 37.8542 135.297 36.6771 136.297 35.7813C137.307 34.875 138.469 34.2188 139.781 33.8125C141.094 33.3958 142.474 33.1875 143.922 33.1875C144.88 33.1875 145.896 33.3021 146.969 33.5313C148.052 33.75 149.063 34.1563 150 34.75C150.948 35.3438 151.724 36.1927 152.328 37.2969C152.932 38.3906 153.234 39.8125 153.234 41.5625V57.5H148.672V54.2188H148.484C148.182 54.8229 147.729 55.4167 147.125 56C146.521 56.5833 145.745 57.0677 144.797 57.4531C143.849 57.8385 142.714 58.0313 141.391 58.0313ZM142.406 54.2813C143.698 54.2813 144.802 54.026 145.719 53.5156C146.646 53.0052 147.349 52.3385 147.828 51.5156C148.318 50.6823 148.562 49.7917 148.562 48.8438V45.75C148.396 45.9167 148.073 46.0729 147.594 46.2188C147.125 46.3542 146.589 46.474 145.984 46.5781C145.38 46.6719 144.792 46.7604 144.219 46.8438C143.646 46.9167 143.167 46.9792 142.781 47.0313C141.875 47.1458 141.047 47.3385 140.297 47.6094C139.557 47.8802 138.964 48.2708 138.516 48.7813C138.078 49.2813 137.859 49.9479 137.859 50.7813C137.859 51.9375 138.286 52.8125 139.141 53.4063C139.995 53.9896 141.083 54.2813 142.406 54.2813Z" fill="#A2A2A2"/>
<path d="M175.773 25.5V57.5H171.102V25.5H175.773Z" fill="#A2A2A2"/>
<path d="M189.043 58.0313C187.522 58.0313 186.147 57.75 184.918 57.1875C183.689 56.6146 182.715 55.7865 181.996 54.7031C181.288 53.6198 180.934 52.2917 180.934 50.7188C180.934 49.3646 181.194 48.25 181.715 47.375C182.236 46.5 182.939 45.8073 183.824 45.2969C184.71 44.7865 185.699 44.401 186.793 44.1406C187.887 43.8802 189.001 43.6823 190.137 43.5469C191.574 43.3802 192.741 43.2448 193.637 43.1406C194.533 43.026 195.184 42.8438 195.59 42.5938C195.996 42.3438 196.199 41.9375 196.199 41.375V41.2656C196.199 39.901 195.814 38.8438 195.043 38.0938C194.283 37.3438 193.147 36.9688 191.637 36.9688C190.064 36.9688 188.824 37.3177 187.918 38.0156C187.022 38.7031 186.402 39.4688 186.059 40.3125L181.668 39.3125C182.189 37.8542 182.949 36.6771 183.949 35.7813C184.96 34.875 186.121 34.2188 187.434 33.8125C188.746 33.3958 190.126 33.1875 191.574 33.1875C192.533 33.1875 193.548 33.3021 194.621 33.5313C195.704 33.75 196.715 34.1563 197.652 34.75C198.6 35.3438 199.376 36.1927 199.98 37.2969C200.585 38.3906 200.887 39.8125 200.887 41.5625V57.5H196.324V54.2188H196.137C195.835 54.8229 195.382 55.4167 194.777 56C194.173 56.5833 193.397 57.0677 192.449 57.4531C191.501 57.8385 190.366 58.0313 189.043 58.0313ZM190.059 54.2813C191.35 54.2813 192.454 54.026 193.371 53.5156C194.298 53.0052 195.001 52.3385 195.48 51.5156C195.97 50.6823 196.215 49.7917 196.215 48.8438V45.75C196.048 45.9167 195.725 46.0729 195.246 46.2188C194.777 46.3542 194.241 46.474 193.637 46.5781C193.033 46.6719 192.444 46.7604 191.871 46.8438C191.298 46.9167 190.819 46.9792 190.434 47.0313C189.527 47.1458 188.699 47.3385 187.949 47.6094C187.21 47.8802 186.616 48.2708 186.168 48.7813C185.73 49.2813 185.512 49.9479 185.512 50.7813C185.512 51.9375 185.939 52.8125 186.793 53.4063C187.647 53.9896 188.736 54.2813 190.059 54.2813Z" fill="#A2A2A2"/>
<path d="M217.219 57.9844C214.896 57.9844 212.896 57.4583 211.219 56.4063C209.552 55.3438 208.271 53.8802 207.375 52.0156C206.479 50.151 206.031 48.0156 206.031 45.6094C206.031 43.1719 206.49 41.0208 207.406 39.1563C208.323 37.2813 209.615 35.8177 211.281 34.7656C212.948 33.7135 214.911 33.1875 217.172 33.1875C218.995 33.1875 220.62 33.526 222.047 34.2031C223.474 34.8698 224.625 35.8073 225.5 37.0156C226.385 38.224 226.911 39.6354 227.078 41.25H222.531C222.281 40.125 221.708 39.1563 220.812 38.3438C219.927 37.5313 218.74 37.125 217.25 37.125C215.948 37.125 214.807 37.4688 213.828 38.1563C212.859 38.8333 212.104 39.8021 211.562 41.0625C211.021 42.3125 210.75 43.7917 210.75 45.5C210.75 47.25 211.016 48.7604 211.547 50.0313C212.078 51.3021 212.828 52.2865 213.797 52.9844C214.776 53.6823 215.927 54.0313 217.25 54.0313C218.135 54.0313 218.937 53.8698 219.656 53.5469C220.385 53.2135 220.995 52.7396 221.484 52.125C221.984 51.5104 222.333 50.7708 222.531 49.9063H227.078C226.911 51.4583 226.406 52.8438 225.562 54.0625C224.719 55.2813 223.589 56.2396 222.172 56.9375C220.766 57.6354 219.115 57.9844 217.219 57.9844Z" fill="#A2A2A2"/>
<path d="M236.371 49.3594L236.34 43.6563H237.152L246.715 33.5H252.309L241.402 45.0625H240.668L236.371 49.3594ZM232.074 57.5V25.5H236.746V57.5H232.074ZM247.23 57.5L238.637 46.0938L241.855 42.8281L252.965 57.5H247.23Z" fill="#A2A2A2"/>
<path d="M265.922 57.9844C263.557 57.9844 261.521 57.4792 259.812 56.4688C258.115 55.4479 256.802 54.0156 255.875 52.1719C254.958 50.3177 254.5 48.1458 254.5 45.6563C254.5 43.1979 254.958 41.0313 255.875 39.1563C256.802 37.2813 258.094 35.8177 259.75 34.7656C261.417 33.7135 263.365 33.1875 265.594 33.1875C266.948 33.1875 268.26 33.4115 269.531 33.8594C270.802 34.3073 271.943 35.0104 272.953 35.9688C273.964 36.9271 274.76 38.1719 275.344 39.7031C275.927 41.224 276.219 43.0729 276.219 45.25V46.9063H257.141V43.4063H271.641C271.641 42.1771 271.391 41.0885 270.891 40.1406C270.391 39.1823 269.687 38.4271 268.781 37.875C267.885 37.3229 266.833 37.0469 265.625 37.0469C264.313 37.0469 263.167 37.3698 262.188 38.0156C261.219 38.651 260.469 39.4844 259.938 40.5156C259.417 41.5365 259.156 42.6458 259.156 43.8438V46.5781C259.156 48.1823 259.438 49.5469 260 50.6719C260.573 51.7969 261.37 52.6563 262.391 53.25C263.411 53.8333 264.604 54.125 265.969 54.125C266.854 54.125 267.661 54 268.391 53.75C269.12 53.4896 269.75 53.1042 270.281 52.5938C270.813 52.0833 271.219 51.4531 271.5 50.7031L275.922 51.5C275.568 52.8021 274.932 53.9427 274.016 54.9219C273.109 55.8906 271.969 56.6458 270.594 57.1875C269.229 57.7188 267.672 57.9844 265.922 57.9844Z" fill="#A2A2A2"/>
<path d="M290.387 57.9688C288.449 57.9688 286.72 57.474 285.199 56.4844C283.689 55.4844 282.501 54.0625 281.637 52.2188C280.783 50.3646 280.355 48.1406 280.355 45.5469C280.355 42.9531 280.788 40.7344 281.652 38.8906C282.527 37.0469 283.725 35.6354 285.246 34.6563C286.767 33.6771 288.491 33.1875 290.418 33.1875C291.908 33.1875 293.105 33.4375 294.012 33.9375C294.928 34.4271 295.637 35 296.137 35.6563C296.647 36.3125 297.043 36.8906 297.324 37.3906H297.605V25.5H302.277V57.5H297.715V53.7656H297.324C297.043 54.276 296.637 54.8594 296.105 55.5156C295.585 56.1719 294.866 56.7448 293.949 57.2344C293.033 57.724 291.845 57.9688 290.387 57.9688ZM291.418 53.9844C292.762 53.9844 293.897 53.6302 294.824 52.9219C295.762 52.2031 296.47 51.2083 296.949 49.9375C297.439 48.6667 297.684 47.1875 297.684 45.5C297.684 43.8333 297.444 42.375 296.965 41.125C296.486 39.875 295.783 38.901 294.855 38.2031C293.928 37.5052 292.783 37.1563 291.418 37.1563C290.012 37.1563 288.84 37.5208 287.902 38.25C286.965 38.9792 286.257 39.974 285.777 41.2344C285.309 42.4948 285.074 43.9167 285.074 45.5C285.074 47.1042 285.314 48.5469 285.793 49.8281C286.272 51.1094 286.98 52.125 287.918 52.875C288.866 53.6146 290.033 53.9844 291.418 53.9844Z" fill="#A2A2A2"/>
<path d="M327.574 58.0313C326.053 58.0313 324.678 57.75 323.449 57.1875C322.22 56.6146 321.246 55.7865 320.527 54.7031C319.819 53.6198 319.465 52.2917 319.465 50.7188C319.465 49.3646 319.725 48.25 320.246 47.375C320.767 46.5 321.47 45.8073 322.355 45.2969C323.241 44.7865 324.23 44.401 325.324 44.1406C326.418 43.8802 327.533 43.6823 328.668 43.5469C330.105 43.3802 331.272 43.2448 332.168 43.1406C333.064 43.026 333.715 42.8438 334.121 42.5938C334.527 42.3438 334.73 41.9375 334.73 41.375V41.2656C334.73 39.901 334.345 38.8438 333.574 38.0938C332.814 37.3438 331.678 36.9688 330.168 36.9688C328.595 36.9688 327.355 37.3177 326.449 38.0156C325.553 38.7031 324.934 39.4688 324.59 40.3125L320.199 39.3125C320.72 37.8542 321.48 36.6771 322.48 35.7813C323.491 34.875 324.652 34.2188 325.965 33.8125C327.277 33.3958 328.658 33.1875 330.105 33.1875C331.064 33.1875 332.079 33.3021 333.152 33.5313C334.236 33.75 335.246 34.1563 336.184 34.75C337.132 35.3438 337.908 36.1927 338.512 37.2969C339.116 38.3906 339.418 39.8125 339.418 41.5625V57.5H334.855V54.2188H334.668C334.366 54.8229 333.913 55.4167 333.309 56C332.704 56.5833 331.928 57.0677 330.98 57.4531C330.033 57.8385 328.897 58.0313 327.574 58.0313ZM328.59 54.2813C329.882 54.2813 330.986 54.026 331.902 53.5156C332.829 53.0052 333.533 52.3385 334.012 51.5156C334.501 50.6823 334.746 49.7917 334.746 48.8438V45.75C334.579 45.9167 334.257 46.0729 333.777 46.2188C333.309 46.3542 332.772 46.474 332.168 46.5781C331.564 46.6719 330.975 46.7604 330.402 46.8438C329.829 46.9167 329.35 46.9792 328.965 47.0313C328.059 47.1458 327.23 47.3385 326.48 47.6094C325.741 47.8802 325.147 48.2708 324.699 48.7813C324.262 49.2813 324.043 49.9479 324.043 50.7813C324.043 51.9375 324.47 52.8125 325.324 53.4063C326.178 53.9896 327.267 54.2813 328.59 54.2813Z" fill="#A2A2A2"/>
<path d="M357.66 57.5V25.5H362.332V37.3906H362.613C362.884 36.8906 363.275 36.3125 363.785 35.6563C364.296 35 365.004 34.4271 365.91 33.9375C366.816 33.4375 368.014 33.1875 369.504 33.1875C371.441 33.1875 373.171 33.6771 374.691 34.6563C376.212 35.6354 377.405 37.0469 378.27 38.8906C379.145 40.7344 379.582 42.9531 379.582 45.5469C379.582 48.1406 379.15 50.3646 378.285 52.2188C377.421 54.0625 376.233 55.4844 374.723 56.4844C373.212 57.474 371.488 57.9688 369.551 57.9688C368.092 57.9688 366.9 57.724 365.973 57.2344C365.056 56.7448 364.337 56.1719 363.816 55.5156C363.296 54.8594 362.895 54.276 362.613 53.7656H362.223V57.5H357.66ZM362.238 45.5C362.238 47.1875 362.483 48.6667 362.973 49.9375C363.462 51.2083 364.171 52.2031 365.098 52.9219C366.025 53.6302 367.16 53.9844 368.504 53.9844C369.9 53.9844 371.066 53.6146 372.004 52.875C372.941 52.125 373.65 51.1094 374.129 49.8281C374.618 48.5469 374.863 47.1042 374.863 45.5C374.863 43.9167 374.624 42.4948 374.145 41.2344C373.676 39.974 372.967 38.9792 372.02 38.25C371.082 37.5208 369.91 37.1563 368.504 37.1563C367.15 37.1563 366.004 37.5052 365.066 38.2031C364.139 38.901 363.436 39.875 362.957 41.125C362.478 42.375 362.238 43.8333 362.238 45.5Z" fill="#A2A2A2"/>
<path d="M400.031 47.5469V33.5H404.719V57.5H400.125V53.3438H399.875C399.323 54.625 398.437 55.6927 397.219 56.5469C396.01 57.3906 394.505 57.8125 392.703 57.8125C391.161 57.8125 389.797 57.474 388.609 56.7969C387.432 56.1094 386.505 55.0938 385.828 53.75C385.161 52.4063 384.828 50.7448 384.828 48.7656V33.5H389.5V48.2031C389.5 49.8385 389.953 51.1406 390.859 52.1094C391.766 53.0781 392.943 53.5625 394.391 53.5625C395.266 53.5625 396.135 53.3438 397 52.9063C397.875 52.4688 398.599 51.8073 399.172 50.9219C399.755 50.0365 400.042 48.9115 400.031 47.5469Z" fill="#A2A2A2"/>
<path d="M410.996 57.5V33.5H415.668V57.5H410.996ZM413.355 29.7969C412.543 29.7969 411.845 29.526 411.262 28.9844C410.689 28.4323 410.402 27.776 410.402 27.0156C410.402 26.2448 410.689 25.5885 411.262 25.0469C411.845 24.4948 412.543 24.2188 413.355 24.2188C414.168 24.2188 414.861 24.4948 415.434 25.0469C416.017 25.5885 416.309 26.2448 416.309 27.0156C416.309 27.776 416.017 28.4323 415.434 28.9844C414.861 29.526 414.168 29.7969 413.355 29.7969Z" fill="#A2A2A2"/>
<path d="M426.625 25.5V57.5H421.953V25.5H426.625Z" fill="#A2A2A2"/>
<path d="M444.113 33.5V37.25H431.004V33.5H444.113ZM434.52 27.75H439.191V50.4531C439.191 51.3594 439.327 52.0417 439.598 52.5C439.868 52.9479 440.217 53.2552 440.645 53.4219C441.082 53.5781 441.556 53.6563 442.066 53.6563C442.441 53.6563 442.77 53.6302 443.051 53.5781C443.332 53.526 443.551 53.4844 443.707 53.4531L444.551 57.3125C444.28 57.4167 443.895 57.5208 443.395 57.625C442.895 57.7396 442.27 57.8021 441.52 57.8125C440.29 57.8333 439.145 57.6146 438.082 57.1563C437.02 56.6979 436.16 55.9896 435.504 55.0313C434.848 54.0729 434.52 52.8698 434.52 51.4219V27.75Z" fill="#A2A2A2"/>
<path d="M462.605 41.9531V46H448.418V41.9531H462.605Z" fill="#A2A2A2"/>
<path d="M468.832 57.5V33.5H473.504V57.5H468.832ZM471.191 29.7969C470.379 29.7969 469.681 29.526 469.098 28.9844C468.525 28.4323 468.238 27.776 468.238 27.0156C468.238 26.2448 468.525 25.5885 469.098 25.0469C469.681 24.4948 470.379 24.2188 471.191 24.2188C472.004 24.2188 472.697 24.4948 473.27 25.0469C473.853 25.5885 474.145 26.2448 474.145 27.0156C474.145 27.776 473.853 28.4323 473.27 28.9844C472.697 29.526 472.004 29.7969 471.191 29.7969Z" fill="#A2A2A2"/>
<path d="M484.461 43.25V57.5H479.789V33.5H484.273V37.4063H484.57C485.122 36.1354 485.987 35.1146 487.164 34.3438C488.352 33.5729 489.846 33.1875 491.648 33.1875C493.284 33.1875 494.716 33.5313 495.945 34.2188C497.174 34.8958 498.128 35.9063 498.805 37.25C499.482 38.5938 499.82 40.2552 499.82 42.2344V57.5H495.148V42.7969C495.148 41.0573 494.695 39.6979 493.789 38.7188C492.883 37.7292 491.638 37.2344 490.055 37.2344C488.971 37.2344 488.008 37.4688 487.164 37.9375C486.331 38.4063 485.669 39.0938 485.18 40C484.701 40.8958 484.461 41.9792 484.461 43.25Z" fill="#A2A2A2"/>
<path d="M535.715 39.3594L531.48 40.1094C531.303 39.5677 531.022 39.0521 530.637 38.5625C530.262 38.0729 529.751 37.6719 529.105 37.3594C528.46 37.0469 527.652 36.8906 526.684 36.8906C525.361 36.8906 524.257 37.1875 523.371 37.7813C522.486 38.3646 522.043 39.1198 522.043 40.0469C522.043 40.849 522.34 41.4948 522.934 41.9844C523.527 42.474 524.486 42.875 525.809 43.1875L529.621 44.0625C531.829 44.5729 533.475 45.3594 534.559 46.4219C535.642 47.4844 536.184 48.8646 536.184 50.5625C536.184 52 535.767 53.2813 534.934 54.4063C534.111 55.5208 532.96 56.3958 531.48 57.0313C530.012 57.6667 528.309 57.9844 526.371 57.9844C523.684 57.9844 521.491 57.4115 519.793 56.2656C518.095 55.1094 517.053 53.4688 516.668 51.3438L521.184 50.6563C521.465 51.8333 522.043 52.724 522.918 53.3281C523.793 53.9219 524.934 54.2188 526.34 54.2188C527.871 54.2188 529.095 53.901 530.012 53.2656C530.928 52.6198 531.387 51.8333 531.387 50.9063C531.387 50.1563 531.105 49.526 530.543 49.0156C529.991 48.5052 529.142 48.1198 527.996 47.8594L523.934 46.9688C521.694 46.4583 520.038 45.6458 518.965 44.5313C517.902 43.4167 517.371 42.0052 517.371 40.2969C517.371 38.8802 517.767 37.6406 518.559 36.5781C519.35 35.5156 520.444 34.6875 521.84 34.0938C523.236 33.4896 524.835 33.1875 526.637 33.1875C529.23 33.1875 531.272 33.75 532.762 34.875C534.251 35.9896 535.236 37.4844 535.715 39.3594Z" fill="#A2A2A2"/>
<path d="M551.43 57.9844C549.18 57.9844 547.216 57.4688 545.539 56.4375C543.862 55.4063 542.56 53.9635 541.633 52.1094C540.706 50.2552 540.242 48.0885 540.242 45.6094C540.242 43.1198 540.706 40.9427 541.633 39.0781C542.56 37.2135 543.862 35.7656 545.539 34.7344C547.216 33.7031 549.18 33.1875 551.43 33.1875C553.68 33.1875 555.643 33.7031 557.32 34.7344C558.997 35.7656 560.299 37.2135 561.227 39.0781C562.154 40.9427 562.617 43.1198 562.617 45.6094C562.617 48.0885 562.154 50.2552 561.227 52.1094C560.299 53.9635 558.997 55.4063 557.32 56.4375C555.643 57.4688 553.68 57.9844 551.43 57.9844ZM551.445 54.0625C552.904 54.0625 554.112 53.6771 555.07 52.9063C556.029 52.1354 556.737 51.1094 557.195 49.8281C557.664 48.5469 557.898 47.1354 557.898 45.5938C557.898 44.0625 557.664 42.6563 557.195 41.375C556.737 40.0833 556.029 39.0469 555.07 38.2656C554.112 37.4844 552.904 37.0938 551.445 37.0938C549.977 37.0938 548.758 37.4844 547.789 38.2656C546.831 39.0469 546.117 40.0833 545.648 41.375C545.19 42.6563 544.961 44.0625 544.961 45.5938C544.961 47.1354 545.19 48.5469 545.648 49.8281C546.117 51.1094 546.831 52.1354 547.789 52.9063C548.758 53.6771 549.977 54.0625 551.445 54.0625Z" fill="#A2A2A2"/>
<path d="M572.504 25.5V57.5H567.832V25.5H572.504Z" fill="#A2A2A2"/>
<path d="M593.992 47.5469V33.5H598.68V57.5H594.086V53.3438H593.836C593.284 54.625 592.398 55.6927 591.18 56.5469C589.971 57.3906 588.466 57.8125 586.664 57.8125C585.122 57.8125 583.758 57.474 582.57 56.7969C581.393 56.1094 580.466 55.0938 579.789 53.75C579.122 52.4063 578.789 50.7448 578.789 48.7656V33.5H583.461V48.2031C583.461 49.8385 583.914 51.1406 584.82 52.1094C585.727 53.0781 586.904 53.5625 588.352 53.5625C589.227 53.5625 590.096 53.3438 590.961 52.9063C591.836 52.4688 592.56 51.8073 593.133 50.9219C593.716 50.0365 594.003 48.9115 593.992 47.5469Z" fill="#A2A2A2"/>
<path d="M616.16 33.5V37.25H603.051V33.5H616.16ZM606.566 27.75H611.238V50.4531C611.238 51.3594 611.374 52.0417 611.645 52.5C611.915 52.9479 612.264 53.2552 612.691 53.4219C613.129 53.5781 613.603 53.6563 614.113 53.6563C614.488 53.6563 614.816 53.6302 615.098 53.5781C615.379 53.526 615.598 53.4844 615.754 53.4531L616.598 57.3125C616.327 57.4167 615.941 57.5208 615.441 57.625C614.941 57.7396 614.316 57.8021 613.566 57.8125C612.337 57.8333 611.191 57.6146 610.129 57.1563C609.066 56.6979 608.207 55.9896 607.551 55.0313C606.895 54.0729 606.566 52.8698 606.566 51.4219V27.75Z" fill="#A2A2A2"/>
<path d="M621.328 57.5V33.5H626V57.5H621.328ZM623.688 29.7969C622.875 29.7969 622.177 29.526 621.594 28.9844C621.021 28.4323 620.734 27.776 620.734 27.0156C620.734 26.2448 621.021 25.5885 621.594 25.0469C622.177 24.4948 622.875 24.2188 623.688 24.2188C624.5 24.2188 625.193 24.4948 625.766 25.0469C626.349 25.5885 626.641 26.2448 626.641 27.0156C626.641 27.776 626.349 28.4323 625.766 28.9844C625.193 29.526 624.5 29.7969 623.688 29.7969Z" fill="#A2A2A2"/>
<path d="M642.395 57.9844C640.145 57.9844 638.181 57.4688 636.504 56.4375C634.827 55.4063 633.525 53.9635 632.598 52.1094C631.671 50.2552 631.207 48.0885 631.207 45.6094C631.207 43.1198 631.671 40.9427 632.598 39.0781C633.525 37.2135 634.827 35.7656 636.504 34.7344C638.181 33.7031 640.145 33.1875 642.395 33.1875C644.645 33.1875 646.608 33.7031 648.285 34.7344C649.962 35.7656 651.264 37.2135 652.191 39.0781C653.118 40.9427 653.582 43.1198 653.582 45.6094C653.582 48.0885 653.118 50.2552 652.191 52.1094C651.264 53.9635 649.962 55.4063 648.285 56.4375C646.608 57.4688 644.645 57.9844 642.395 57.9844ZM642.41 54.0625C643.868 54.0625 645.077 53.6771 646.035 52.9063C646.993 52.1354 647.702 51.1094 648.16 49.8281C648.629 48.5469 648.863 47.1354 648.863 45.5938C648.863 44.0625 648.629 42.6563 648.16 41.375C647.702 40.0833 646.993 39.0469 646.035 38.2656C645.077 37.4844 643.868 37.0938 642.41 37.0938C640.941 37.0938 639.723 37.4844 638.754 38.2656C637.796 39.0469 637.082 40.0833 636.613 41.375C636.155 42.6563 635.926 44.0625 635.926 45.5938C635.926 47.1354 636.155 48.5469 636.613 49.8281C637.082 51.1094 637.796 52.1354 638.754 52.9063C639.723 53.6771 640.941 54.0625 642.41 54.0625Z" fill="#A2A2A2"/>
<path d="M663.469 43.25V57.5H658.797V33.5H663.281V37.4063H663.578C664.13 36.1354 664.995 35.1146 666.172 34.3438C667.359 33.5729 668.854 33.1875 670.656 33.1875C672.292 33.1875 673.724 33.5313 674.953 34.2188C676.182 34.8958 677.135 35.9063 677.812 37.25C678.49 38.5938 678.828 40.2552 678.828 42.2344V57.5H674.156V42.7969C674.156 41.0573 673.703 39.6979 672.797 38.7188C671.891 37.7292 670.646 37.2344 669.062 37.2344C667.979 37.2344 667.016 37.4688 666.172 37.9375C665.339 38.4063 664.677 39.0938 664.188 40C663.708 40.8958 663.469 41.9792 663.469 43.25Z" fill="#A2A2A2"/>
<path d="M708.16 33.5V37.25H694.598V33.5H708.16ZM698.316 57.5V30.7188C698.316 29.2188 698.645 27.974 699.301 26.9844C699.957 25.9844 700.827 25.2396 701.91 24.75C702.993 24.25 704.171 24 705.441 24C706.379 24 707.181 24.0781 707.848 24.2344C708.514 24.3802 709.009 24.5156 709.332 24.6406L708.238 28.4219C708.02 28.3594 707.738 28.2865 707.395 28.2031C707.051 28.1094 706.634 28.0625 706.145 28.0625C705.009 28.0625 704.197 28.3438 703.707 28.9062C703.228 29.4688 702.988 30.2813 702.988 31.3438V57.5H698.316Z" fill="#A2A2A2"/>
<path d="M722.145 57.9844C719.895 57.9844 717.931 57.4688 716.254 56.4375C714.577 55.4063 713.275 53.9635 712.348 52.1094C711.421 50.2552 710.957 48.0885 710.957 45.6094C710.957 43.1198 711.421 40.9427 712.348 39.0781C713.275 37.2135 714.577 35.7656 716.254 34.7344C717.931 33.7031 719.895 33.1875 722.145 33.1875C724.395 33.1875 726.358 33.7031 728.035 34.7344C729.712 35.7656 731.014 37.2135 731.941 39.0781C732.868 40.9427 733.332 43.1198 733.332 45.6094C733.332 48.0885 732.868 50.2552 731.941 52.1094C731.014 53.9635 729.712 55.4063 728.035 56.4375C726.358 57.4688 724.395 57.9844 722.145 57.9844ZM722.16 54.0625C723.618 54.0625 724.827 53.6771 725.785 52.9063C726.743 52.1354 727.452 51.1094 727.91 49.8281C728.379 48.5469 728.613 47.1354 728.613 45.5938C728.613 44.0625 728.379 42.6563 727.91 41.375C727.452 40.0833 726.743 39.0469 725.785 38.2656C724.827 37.4844 723.618 37.0938 722.16 37.0938C720.691 37.0938 719.473 37.4844 718.504 38.2656C717.546 39.0469 716.832 40.0833 716.363 41.375C715.905 42.6563 715.676 44.0625 715.676 45.5938C715.676 47.1354 715.905 48.5469 716.363 49.8281C716.832 51.1094 717.546 52.1354 718.504 52.9063C719.473 53.6771 720.691 54.0625 722.16 54.0625Z" fill="#A2A2A2"/>
<path d="M738.547 57.5V33.5H743.062V37.3125H743.312C743.75 36.0208 744.521 35.0052 745.625 34.2656C746.74 33.5156 748 33.1406 749.406 33.1406C749.698 33.1406 750.042 33.151 750.438 33.1719C750.844 33.1927 751.161 33.2188 751.391 33.25V37.7188C751.203 37.6667 750.87 37.6094 750.391 37.5469C749.911 37.474 749.432 37.4375 748.953 37.4375C747.849 37.4375 746.865 37.6719 746 38.1406C745.146 38.599 744.469 39.2396 743.969 40.0625C743.469 40.875 743.219 41.8021 743.219 42.8438V57.5H738.547Z" fill="#A2A2A2"/>
<path d="M767.453 57.5V25.5H772.125V37.3906H772.406C772.677 36.8906 773.068 36.3125 773.578 35.6563C774.089 35 774.797 34.4271 775.703 33.9375C776.609 33.4375 777.807 33.1875 779.297 33.1875C781.234 33.1875 782.964 33.6771 784.484 34.6563C786.005 35.6354 787.198 37.0469 788.062 38.8906C788.937 40.7344 789.375 42.9531 789.375 45.5469C789.375 48.1406 788.943 50.3646 788.078 52.2188C787.214 54.0625 786.026 55.4844 784.516 56.4844C783.005 57.474 781.281 57.9688 779.344 57.9688C777.885 57.9688 776.693 57.724 775.766 57.2344C774.849 56.7448 774.13 56.1719 773.609 55.5156C773.089 54.8594 772.688 54.276 772.406 53.7656H772.016V57.5H767.453ZM772.031 45.5C772.031 47.1875 772.276 48.6667 772.766 49.9375C773.255 51.2083 773.964 52.2031 774.891 52.9219C775.818 53.6302 776.953 53.9844 778.297 53.9844C779.693 53.9844 780.859 53.6146 781.797 52.875C782.734 52.125 783.443 51.1094 783.922 49.8281C784.411 48.5469 784.656 47.1042 784.656 45.5C784.656 43.9167 784.417 42.4948 783.938 41.2344C783.469 39.974 782.76 38.9792 781.812 38.25C780.875 37.5208 779.703 37.1563 778.297 37.1563C776.943 37.1563 775.797 37.5052 774.859 38.2031C773.932 38.901 773.229 39.875 772.75 41.125C772.271 42.375 772.031 43.8333 772.031 45.5Z" fill="#A2A2A2"/>
<path d="M801.605 58.0313C800.085 58.0313 798.71 57.75 797.48 57.1875C796.251 56.6146 795.277 55.7865 794.559 54.7031C793.85 53.6198 793.496 52.2917 793.496 50.7188C793.496 49.3646 793.757 48.25 794.277 47.375C794.798 46.5 795.501 45.8073 796.387 45.2969C797.272 44.7865 798.262 44.401 799.355 44.1406C800.449 43.8802 801.564 43.6823 802.699 43.5469C804.137 43.3802 805.303 43.2448 806.199 43.1406C807.095 43.026 807.746 42.8438 808.152 42.5938C808.559 42.3438 808.762 41.9375 808.762 41.375V41.2656C808.762 39.901 808.376 38.8438 807.605 38.0938C806.845 37.3438 805.71 36.9688 804.199 36.9688C802.626 36.9688 801.387 37.3177 800.48 38.0156C799.585 38.7031 798.965 39.4688 798.621 40.3125L794.23 39.3125C794.751 37.8542 795.512 36.6771 796.512 35.7813C797.522 34.875 798.684 34.2188 799.996 33.8125C801.309 33.3958 802.689 33.1875 804.137 33.1875C805.095 33.1875 806.111 33.3021 807.184 33.5313C808.267 33.75 809.277 34.1563 810.215 34.75C811.163 35.3438 811.939 36.1927 812.543 37.2969C813.147 38.3906 813.449 39.8125 813.449 41.5625V57.5H808.887V54.2188H808.699C808.397 54.8229 807.944 55.4167 807.34 56C806.736 56.5833 805.96 57.0677 805.012 57.4531C804.064 57.8385 802.928 58.0313 801.605 58.0313ZM802.621 54.2813C803.913 54.2813 805.017 54.026 805.934 53.5156C806.861 53.0052 807.564 52.3385 808.043 51.5156C808.533 50.6823 808.777 49.7917 808.777 48.8438V45.75C808.611 45.9167 808.288 46.0729 807.809 46.2188C807.34 46.3542 806.803 46.474 806.199 46.5781C805.595 46.6719 805.007 46.7604 804.434 46.8438C803.861 46.9167 803.382 46.9792 802.996 47.0313C802.09 47.1458 801.262 47.3385 800.512 47.6094C799.772 47.8802 799.178 48.2708 798.73 48.7813C798.293 49.2813 798.074 49.9479 798.074 50.7813C798.074 51.9375 798.501 52.8125 799.355 53.4063C800.21 53.9896 801.298 54.2813 802.621 54.2813Z" fill="#A2A2A2"/>
<path d="M830.875 33.5V37.25H817.766V33.5H830.875ZM821.281 27.75H825.953V50.4531C825.953 51.3594 826.089 52.0417 826.359 52.5C826.63 52.9479 826.979 53.2552 827.406 53.4219C827.844 53.5781 828.318 53.6563 828.828 53.6563C829.203 53.6563 829.531 53.6302 829.812 53.5781C830.094 53.526 830.312 53.4844 830.469 53.4531L831.312 57.3125C831.042 57.4167 830.656 57.5208 830.156 57.625C829.656 57.7396 829.031 57.8021 828.281 57.8125C827.052 57.8333 825.906 57.6146 824.844 57.1563C823.781 56.6979 822.922 55.9896 822.266 55.0313C821.609 54.0729 821.281 52.8698 821.281 51.4219V27.75Z" fill="#A2A2A2"/>
<path d="M845.895 57.9844C843.572 57.9844 841.572 57.4583 839.895 56.4063C838.228 55.3438 836.947 53.8802 836.051 52.0156C835.155 50.151 834.707 48.0156 834.707 45.6094C834.707 43.1719 835.165 41.0208 836.082 39.1563C836.999 37.2813 838.29 35.8177 839.957 34.7656C841.624 33.7135 843.587 33.1875 845.848 33.1875C847.671 33.1875 849.296 33.526 850.723 34.2031C852.15 34.8698 853.301 35.8073 854.176 37.0156C855.061 38.224 855.587 39.6354 855.754 41.25H851.207C850.957 40.125 850.384 39.1563 849.488 38.3438C848.603 37.5313 847.415 37.125 845.926 37.125C844.624 37.125 843.483 37.4688 842.504 38.1563C841.535 38.8333 840.78 39.8021 840.238 41.0625C839.697 42.3125 839.426 43.7917 839.426 45.5C839.426 47.25 839.691 48.7604 840.223 50.0313C840.754 51.3021 841.504 52.2865 842.473 52.9844C843.452 53.6823 844.603 54.0313 845.926 54.0313C846.811 54.0313 847.613 53.8698 848.332 53.5469C849.061 53.2135 849.671 52.7396 850.16 52.125C850.66 51.5104 851.009 50.7708 851.207 49.9063H855.754C855.587 51.4583 855.082 52.8438 854.238 54.0625C853.395 55.2813 852.264 56.2396 850.848 56.9375C849.441 57.6354 847.79 57.9844 845.895 57.9844Z" fill="#A2A2A2"/>
<path d="M865.422 43.25V57.5H860.75V25.5H865.359V37.4063H865.656C866.219 36.1146 867.078 35.0885 868.234 34.3281C869.391 33.5677 870.901 33.1875 872.766 33.1875C874.411 33.1875 875.849 33.526 877.078 34.2031C878.318 34.8802 879.276 35.8906 879.953 37.2344C880.641 38.5677 880.984 40.2344 880.984 42.2344V57.5H876.312V42.7969C876.312 41.0365 875.859 39.6719 874.953 38.7031C874.047 37.724 872.786 37.2344 871.172 37.2344C870.068 37.2344 869.078 37.4688 868.203 37.9375C867.339 38.4063 866.656 39.0938 866.156 40C865.667 40.8958 865.422 41.9792 865.422 43.25Z" fill="#A2A2A2"/>
<path d="M910.285 33.5V37.25H896.723V33.5H910.285ZM900.441 57.5V30.7188C900.441 29.2188 900.77 27.974 901.426 26.9844C902.082 25.9844 902.952 25.2396 904.035 24.75C905.118 24.25 906.296 24 907.566 24C908.504 24 909.306 24.0781 909.973 24.2344C910.639 24.3802 911.134 24.5156 911.457 24.6406L910.363 28.4219C910.145 28.3594 909.863 28.2865 909.52 28.2031C909.176 28.1094 908.759 28.0625 908.27 28.0625C907.134 28.0625 906.322 28.3438 905.832 28.9062C905.353 29.4688 905.113 30.2813 905.113 31.3438V57.5H900.441Z" fill="#A2A2A2"/>
<path d="M915.105 57.5V33.5H919.621V37.3125H919.871C920.309 36.0208 921.079 35.0052 922.184 34.2656C923.298 33.5156 924.559 33.1406 925.965 33.1406C926.257 33.1406 926.6 33.151 926.996 33.1719C927.402 33.1927 927.72 33.2188 927.949 33.25V37.7188C927.762 37.6667 927.428 37.6094 926.949 37.5469C926.47 37.474 925.991 37.4375 925.512 37.4375C924.408 37.4375 923.423 37.6719 922.559 38.1406C921.704 38.599 921.027 39.2396 920.527 40.0625C920.027 40.875 919.777 41.8021 919.777 42.8438V57.5H915.105Z" fill="#A2A2A2"/>
<path d="M938.762 58.0313C937.241 58.0313 935.866 57.75 934.637 57.1875C933.408 56.6146 932.434 55.7865 931.715 54.7031C931.007 53.6198 930.652 52.2917 930.652 50.7188C930.652 49.3646 930.913 48.25 931.434 47.375C931.954 46.5 932.658 45.8073 933.543 45.2969C934.428 44.7865 935.418 44.401 936.512 44.1406C937.605 43.8802 938.72 43.6823 939.855 43.5469C941.293 43.3802 942.46 43.2448 943.355 43.1406C944.251 43.026 944.902 42.8438 945.309 42.5938C945.715 42.3438 945.918 41.9375 945.918 41.375V41.2656C945.918 39.901 945.533 38.8438 944.762 38.0938C944.001 37.3438 942.866 36.9688 941.355 36.9688C939.783 36.9688 938.543 37.3177 937.637 38.0156C936.741 38.7031 936.121 39.4688 935.777 40.3125L931.387 39.3125C931.908 37.8542 932.668 36.6771 933.668 35.7813C934.678 34.875 935.84 34.2188 937.152 33.8125C938.465 33.3958 939.845 33.1875 941.293 33.1875C942.251 33.1875 943.267 33.3021 944.34 33.5313C945.423 33.75 946.434 34.1563 947.371 34.75C948.319 35.3438 949.095 36.1927 949.699 37.2969C950.303 38.3906 950.605 39.8125 950.605 41.5625V57.5H946.043V54.2188H945.855C945.553 54.8229 945.1 55.4167 944.496 56C943.892 56.5833 943.116 57.0677 942.168 57.4531C941.22 57.8385 940.085 58.0313 938.762 58.0313ZM939.777 54.2813C941.069 54.2813 942.173 54.026 943.09 53.5156C944.017 53.0052 944.72 52.3385 945.199 51.5156C945.689 50.6823 945.934 49.7917 945.934 48.8438V45.75C945.767 45.9167 945.444 46.0729 944.965 46.2188C944.496 46.3542 943.96 46.474 943.355 46.5781C942.751 46.6719 942.163 46.7604 941.59 46.8438C941.017 46.9167 940.538 46.9792 940.152 47.0313C939.246 47.1458 938.418 47.3385 937.668 47.6094C936.928 47.8802 936.335 48.2708 935.887 48.7813C935.449 49.2813 935.23 49.9479 935.23 50.7813C935.23 51.9375 935.658 52.8125 936.512 53.4063C937.366 53.9896 938.454 54.2813 939.777 54.2813Z" fill="#A2A2A2"/>
<path d="M956.828 57.5V33.5H961.312V37.4063H961.609C962.109 36.0833 962.927 35.0521 964.062 34.3125C965.198 33.5625 966.557 33.1875 968.141 33.1875C969.745 33.1875 971.089 33.5625 972.172 34.3125C973.266 35.0625 974.073 36.0938 974.594 37.4063H974.844C975.417 36.125 976.328 35.1042 977.578 34.3438C978.828 33.5729 980.318 33.1875 982.047 33.1875C984.224 33.1875 986 33.8698 987.375 35.2344C988.76 36.599 989.453 38.6563 989.453 41.4063V57.5H984.781V41.8438C984.781 40.2188 984.339 39.0417 983.453 38.3125C982.568 37.5833 981.51 37.2188 980.281 37.2188C978.76 37.2188 977.578 37.6875 976.734 38.625C975.891 39.5521 975.469 40.7448 975.469 42.2031V57.5H970.812V41.5469C970.812 40.2448 970.406 39.1979 969.594 38.4063C968.781 37.6146 967.724 37.2188 966.422 37.2188C965.536 37.2188 964.719 37.4531 963.969 37.9219C963.229 38.3802 962.63 39.0208 962.172 39.8438C961.724 40.6667 961.5 41.6198 961.5 42.7031V57.5H956.828Z" fill="#A2A2A2"/>
<path d="M1006.06 57.9844C1003.69 57.9844 1001.66 57.4792 999.949 56.4688C998.251 55.4479 996.939 54.0156 996.012 52.1719C995.095 50.3177 994.637 48.1458 994.637 45.6563C994.637 43.1979 995.095 41.0313 996.012 39.1563C996.939 37.2813 998.23 35.8177 999.887 34.7656C1001.55 33.7135 1003.5 33.1875 1005.73 33.1875C1007.08 33.1875 1008.4 33.4115 1009.67 33.8594C1010.94 34.3073 1012.08 35.0104 1013.09 35.9688C1014.1 36.9271 1014.9 38.1719 1015.48 39.7031C1016.06 41.224 1016.36 43.0729 1016.36 45.25V46.9063H997.277V43.4063H1011.78C1011.78 42.1771 1011.53 41.0885 1011.03 40.1406C1010.53 39.1823 1009.82 38.4271 1008.92 37.875C1008.02 37.3229 1006.97 37.0469 1005.76 37.0469C1004.45 37.0469 1003.3 37.3698 1002.32 38.0156C1001.36 38.651 1000.61 39.4844 1000.07 40.5156C999.553 41.5365 999.293 42.6458 999.293 43.8438V46.5781C999.293 48.1823 999.574 49.5469 1000.14 50.6719C1000.71 51.7969 1001.51 52.6563 1002.53 53.25C1003.55 53.8333 1004.74 54.125 1006.11 54.125C1006.99 54.125 1007.8 54 1008.53 53.75C1009.26 53.4896 1009.89 53.1042 1010.42 52.5938C1010.95 52.0833 1011.36 51.4531 1011.64 50.7031L1016.06 51.5C1015.7 52.8021 1015.07 53.9427 1014.15 54.9219C1013.25 55.8906 1012.11 56.6458 1010.73 57.1875C1009.37 57.7188 1007.81 57.9844 1006.06 57.9844Z" fill="#A2A2A2"/>
<path d="M1043.29 57.9844C1040.97 57.9844 1038.97 57.4583 1037.29 56.4063C1035.63 55.3438 1034.35 53.8802 1033.45 52.0156C1032.55 50.151 1032.11 48.0156 1032.11 45.6094C1032.11 43.1719 1032.56 41.0208 1033.48 39.1563C1034.4 37.2813 1035.69 35.8177 1037.36 34.7656C1039.02 33.7135 1040.99 33.1875 1043.25 33.1875C1045.07 33.1875 1046.69 33.526 1048.12 34.2031C1049.55 34.8698 1050.7 35.8073 1051.57 37.0156C1052.46 38.224 1052.99 39.6354 1053.15 41.25H1048.61C1048.36 40.125 1047.78 39.1563 1046.89 38.3438C1046 37.5313 1044.81 37.125 1043.32 37.125C1042.02 37.125 1040.88 37.4688 1039.9 38.1563C1038.93 38.8333 1038.18 39.8021 1037.64 41.0625C1037.1 42.3125 1036.82 43.7917 1036.82 45.5C1036.82 47.25 1037.09 48.7604 1037.62 50.0313C1038.15 51.3021 1038.9 52.2865 1039.87 52.9844C1040.85 53.6823 1042 54.0313 1043.32 54.0313C1044.21 54.0313 1045.01 53.8698 1045.73 53.5469C1046.46 53.2135 1047.07 52.7396 1047.56 52.125C1048.06 51.5104 1048.41 50.7708 1048.61 49.9063H1053.15C1052.99 51.4583 1052.48 52.8438 1051.64 54.0625C1050.79 55.2813 1049.66 56.2396 1048.25 56.9375C1046.84 57.6354 1045.19 57.9844 1043.29 57.9844Z" fill="#A2A2A2"/>
<path d="M1058.15 57.5V33.5H1062.66V37.3125H1062.91C1063.35 36.0208 1064.12 35.0052 1065.23 34.2656C1066.34 33.5156 1067.6 33.1406 1069.01 33.1406C1069.3 33.1406 1069.64 33.151 1070.04 33.1719C1070.45 33.1927 1070.76 33.2188 1070.99 33.25V37.7188C1070.8 37.6667 1070.47 37.6094 1069.99 37.5469C1069.51 37.474 1069.03 37.4375 1068.55 37.4375C1067.45 37.4375 1066.47 37.6719 1065.6 38.1406C1064.75 38.599 1064.07 39.2396 1063.57 40.0625C1063.07 40.875 1062.82 41.8021 1062.82 42.8438V57.5H1058.15Z" fill="#A2A2A2"/>
<path d="M1084.52 57.9844C1082.15 57.9844 1080.12 57.4792 1078.41 56.4688C1076.71 55.4479 1075.4 54.0156 1074.47 52.1719C1073.56 50.3177 1073.1 48.1458 1073.1 45.6563C1073.1 43.1979 1073.56 41.0313 1074.47 39.1563C1075.4 37.2813 1076.69 35.8177 1078.35 34.7656C1080.01 33.7135 1081.96 33.1875 1084.19 33.1875C1085.55 33.1875 1086.86 33.4115 1088.13 33.8594C1089.4 34.3073 1090.54 35.0104 1091.55 35.9688C1092.56 36.9271 1093.36 38.1719 1093.94 39.7031C1094.52 41.224 1094.82 43.0729 1094.82 45.25V46.9063H1075.74V43.4063H1090.24C1090.24 42.1771 1089.99 41.0885 1089.49 40.1406C1088.99 39.1823 1088.29 38.4271 1087.38 37.875C1086.48 37.3229 1085.43 37.0469 1084.22 37.0469C1082.91 37.0469 1081.76 37.3698 1080.79 38.0156C1079.82 38.651 1079.07 39.4844 1078.54 40.5156C1078.01 41.5365 1077.75 42.6458 1077.75 43.8438V46.5781C1077.75 48.1823 1078.04 49.5469 1078.6 50.6719C1079.17 51.7969 1079.97 52.6563 1080.99 53.25C1082.01 53.8333 1083.2 54.125 1084.57 54.125C1085.45 54.125 1086.26 54 1086.99 53.75C1087.72 53.4896 1088.35 53.1042 1088.88 52.5938C1089.41 52.0833 1089.82 51.4531 1090.1 50.7031L1094.52 51.5C1094.17 52.8021 1093.53 53.9427 1092.61 54.9219C1091.71 55.8906 1090.57 56.6458 1089.19 57.1875C1087.83 57.7188 1086.27 57.9844 1084.52 57.9844Z" fill="#A2A2A2"/>
<path d="M1106.98 58.0313C1105.46 58.0313 1104.09 57.75 1102.86 57.1875C1101.63 56.6146 1100.66 55.7865 1099.94 54.7031C1099.23 53.6198 1098.88 52.2917 1098.88 50.7188C1098.88 49.3646 1099.14 48.25 1099.66 47.375C1100.18 46.5 1100.88 45.8073 1101.77 45.2969C1102.65 44.7865 1103.64 44.401 1104.73 44.1406C1105.83 43.8802 1106.94 43.6823 1108.08 43.5469C1109.52 43.3802 1110.68 43.2448 1111.58 43.1406C1112.47 43.026 1113.13 42.8438 1113.53 42.5938C1113.94 42.3438 1114.14 41.9375 1114.14 41.375V41.2656C1114.14 39.901 1113.76 38.8438 1112.98 38.0938C1112.22 37.3438 1111.09 36.9688 1109.58 36.9688C1108.01 36.9688 1106.77 37.3177 1105.86 38.0156C1104.96 38.7031 1104.34 39.4688 1104 40.3125L1099.61 39.3125C1100.13 37.8542 1100.89 36.6771 1101.89 35.7813C1102.9 34.875 1104.06 34.2188 1105.38 33.8125C1106.69 33.3958 1108.07 33.1875 1109.52 33.1875C1110.47 33.1875 1111.49 33.3021 1112.56 33.5313C1113.65 33.75 1114.66 34.1563 1115.59 34.75C1116.54 35.3438 1117.32 36.1927 1117.92 37.2969C1118.53 38.3906 1118.83 39.8125 1118.83 41.5625V57.5H1114.27V54.2188H1114.08C1113.78 54.8229 1113.32 55.4167 1112.72 56C1112.11 56.5833 1111.34 57.0677 1110.39 57.4531C1109.44 57.8385 1108.31 58.0313 1106.98 58.0313ZM1108 54.2813C1109.29 54.2813 1110.4 54.026 1111.31 53.5156C1112.24 53.0052 1112.94 52.3385 1113.42 51.5156C1113.91 50.6823 1114.16 49.7917 1114.16 48.8438V45.75C1113.99 45.9167 1113.67 46.0729 1113.19 46.2188C1112.72 46.3542 1112.18 46.474 1111.58 46.5781C1110.97 46.6719 1110.39 46.7604 1109.81 46.8438C1109.24 46.9167 1108.76 46.9792 1108.38 47.0313C1107.47 47.1458 1106.64 47.3385 1105.89 47.6094C1105.15 47.8802 1104.56 48.2708 1104.11 48.7813C1103.67 49.2813 1103.45 49.9479 1103.45 50.7813C1103.45 51.9375 1103.88 52.8125 1104.73 53.4063C1105.59 53.9896 1106.68 54.2813 1108 54.2813Z" fill="#A2A2A2"/>
<path d="M1136.25 33.5V37.25H1123.14V33.5H1136.25ZM1126.66 27.75H1131.33V50.4531C1131.33 51.3594 1131.47 52.0417 1131.74 52.5C1132.01 52.9479 1132.36 53.2552 1132.79 53.4219C1133.22 53.5781 1133.7 53.6563 1134.21 53.6563C1134.58 53.6563 1134.91 53.6302 1135.19 53.5781C1135.47 53.526 1135.69 53.4844 1135.85 53.4531L1136.69 57.3125C1136.42 57.4167 1136.04 57.5208 1135.54 57.625C1135.04 57.7396 1134.41 57.8021 1133.66 57.8125C1132.43 57.8333 1131.29 57.6146 1130.22 57.1563C1129.16 56.6979 1128.3 55.9896 1127.64 55.0313C1126.99 54.0729 1126.66 52.8698 1126.66 51.4219V27.75Z" fill="#A2A2A2"/>
<path d="M1141.42 57.5V33.5H1146.09V57.5H1141.42ZM1143.78 29.7969C1142.97 29.7969 1142.27 29.526 1141.69 28.9844C1141.11 28.4323 1140.83 27.776 1140.83 27.0156C1140.83 26.2448 1141.11 25.5885 1141.69 25.0469C1142.27 24.4948 1142.97 24.2188 1143.78 24.2188C1144.59 24.2188 1145.29 24.4948 1145.86 25.0469C1146.44 25.5885 1146.73 26.2448 1146.73 27.0156C1146.73 27.776 1146.44 28.4323 1145.86 28.9844C1145.29 29.526 1144.59 29.7969 1143.78 29.7969Z" fill="#A2A2A2"/>
<path d="M1162.49 57.9844C1160.24 57.9844 1158.27 57.4688 1156.6 56.4375C1154.92 55.4063 1153.62 53.9635 1152.69 52.1094C1151.76 50.2552 1151.3 48.0885 1151.3 45.6094C1151.3 43.1198 1151.76 40.9427 1152.69 39.0781C1153.62 37.2135 1154.92 35.7656 1156.6 34.7344C1158.27 33.7031 1160.24 33.1875 1162.49 33.1875C1164.74 33.1875 1166.7 33.7031 1168.38 34.7344C1170.06 35.7656 1171.36 37.2135 1172.29 39.0781C1173.21 40.9427 1173.68 43.1198 1173.68 45.6094C1173.68 48.0885 1173.21 50.2552 1172.29 52.1094C1171.36 53.9635 1170.06 55.4063 1168.38 56.4375C1166.7 57.4688 1164.74 57.9844 1162.49 57.9844ZM1162.5 54.0625C1163.96 54.0625 1165.17 53.6771 1166.13 52.9063C1167.09 52.1354 1167.8 51.1094 1168.25 49.8281C1168.72 48.5469 1168.96 47.1354 1168.96 45.5938C1168.96 44.0625 1168.72 42.6563 1168.25 41.375C1167.8 40.0833 1167.09 39.0469 1166.13 38.2656C1165.17 37.4844 1163.96 37.0938 1162.5 37.0938C1161.04 37.0938 1159.82 37.4844 1158.85 38.2656C1157.89 39.0469 1157.18 40.0833 1156.71 41.375C1156.25 42.6563 1156.02 44.0625 1156.02 45.5938C1156.02 47.1354 1156.25 48.5469 1156.71 49.8281C1157.18 51.1094 1157.89 52.1354 1158.85 52.9063C1159.82 53.6771 1161.04 54.0625 1162.5 54.0625Z" fill="#A2A2A2"/>
<path d="M1183.56 43.25V57.5H1178.89V33.5H1183.38V37.4063H1183.67C1184.22 36.1354 1185.09 35.1146 1186.27 34.3438C1187.45 33.5729 1188.95 33.1875 1190.75 33.1875C1192.39 33.1875 1193.82 33.5313 1195.05 34.2188C1196.28 34.8958 1197.23 35.9063 1197.91 37.25C1198.58 38.5938 1198.92 40.2552 1198.92 42.2344V57.5H1194.25V42.7969C1194.25 41.0573 1193.8 39.6979 1192.89 38.7188C1191.98 37.7292 1190.74 37.2344 1189.16 37.2344C1188.07 37.2344 1187.11 37.4688 1186.27 37.9375C1185.43 38.4063 1184.77 39.0938 1184.28 40C1183.8 40.8958 1183.56 41.9792 1183.56 43.25Z" fill="#A2A2A2"/>
<path d="M1208.27 57.7969C1207.41 57.7969 1206.68 57.4948 1206.06 56.8906C1205.45 56.276 1205.14 55.5365 1205.14 54.6719C1205.14 53.8177 1205.45 53.0885 1206.06 52.4844C1206.68 51.8698 1207.41 51.5625 1208.27 51.5625C1209.12 51.5625 1209.85 51.8698 1210.47 52.4844C1211.08 53.0885 1211.39 53.8177 1211.39 54.6719C1211.39 55.2448 1211.24 55.7708 1210.95 56.25C1210.67 56.7188 1210.3 57.0938 1209.83 57.375C1209.36 57.6563 1208.84 57.7969 1208.27 57.7969Z" fill="#A2A2A2"/>
</svg>
