<svg width="684" height="235" viewBox="0 0 684 235" fill="none" xmlns="http://www.w3.org/2000/svg">
<rect width="684" height="235" rx="8" fill="#D9D9D9"/>
<path d="M269.499 106.909V128H266.317V106.909H269.499ZM273.886 128V112.182H276.842V114.756H277.038C277.367 113.884 277.906 113.205 278.654 112.717C279.403 112.223 280.299 111.976 281.342 111.976C282.4 111.976 283.285 112.223 283.999 112.717C284.72 113.212 285.252 113.891 285.596 114.756H285.76C286.138 113.912 286.739 113.239 287.562 112.738C288.386 112.23 289.368 111.976 290.508 111.976C291.943 111.976 293.113 112.426 294.02 113.325C294.933 114.224 295.389 115.58 295.389 117.393V128H292.31V117.681C292.31 116.61 292.018 115.834 291.435 115.354C290.851 114.873 290.154 114.633 289.344 114.633C288.342 114.633 287.562 114.942 287.006 115.56C286.45 116.171 286.172 116.957 286.172 117.918V128H283.103V117.485C283.103 116.627 282.836 115.937 282.3 115.415C281.765 114.894 281.068 114.633 280.21 114.633C279.626 114.633 279.087 114.787 278.593 115.096C278.105 115.398 277.71 115.821 277.408 116.363C277.113 116.905 276.966 117.533 276.966 118.248V128H273.886ZM304.12 128.35C303.117 128.35 302.211 128.165 301.401 127.794C300.591 127.416 299.949 126.871 299.475 126.157C299.008 125.443 298.775 124.567 298.775 123.531C298.775 122.638 298.946 121.903 299.29 121.327C299.633 120.75 300.096 120.293 300.68 119.957C301.264 119.621 301.916 119.367 302.637 119.195C303.358 119.023 304.092 118.893 304.84 118.804C305.788 118.694 306.557 118.605 307.147 118.536C307.738 118.46 308.167 118.34 308.435 118.175C308.702 118.011 308.836 117.743 308.836 117.372V117.3C308.836 116.401 308.582 115.704 308.074 115.21C307.573 114.715 306.825 114.468 305.829 114.468C304.792 114.468 303.975 114.698 303.378 115.158C302.788 115.611 302.379 116.116 302.153 116.672L299.259 116.013C299.602 115.052 300.103 114.276 300.762 113.685C301.428 113.088 302.194 112.656 303.059 112.388C303.924 112.113 304.834 111.976 305.788 111.976C306.42 111.976 307.089 112.051 307.796 112.202C308.51 112.347 309.176 112.614 309.794 113.006C310.419 113.397 310.93 113.957 311.328 114.684C311.727 115.405 311.926 116.342 311.926 117.496V128H308.919V125.837H308.795C308.596 126.236 308.297 126.627 307.899 127.011C307.501 127.396 306.989 127.715 306.365 127.969C305.74 128.223 304.992 128.35 304.12 128.35ZM304.789 125.879C305.64 125.879 306.368 125.71 306.972 125.374C307.583 125.038 308.047 124.598 308.362 124.056C308.685 123.507 308.847 122.92 308.847 122.295V120.256C308.737 120.366 308.524 120.469 308.208 120.565C307.899 120.654 307.545 120.733 307.147 120.801C306.749 120.863 306.361 120.922 305.984 120.977C305.606 121.025 305.29 121.066 305.036 121.1C304.439 121.176 303.893 121.303 303.399 121.481C302.911 121.66 302.52 121.917 302.225 122.254C301.936 122.583 301.792 123.022 301.792 123.572C301.792 124.334 302.074 124.911 302.637 125.302C303.2 125.686 303.917 125.879 304.789 125.879ZM322.659 134.261C321.403 134.261 320.321 134.097 319.415 133.767C318.516 133.438 317.781 133.002 317.211 132.459C316.641 131.917 316.216 131.323 315.934 130.678L318.581 129.586C318.766 129.888 319.013 130.207 319.322 130.544C319.638 130.887 320.064 131.179 320.599 131.419C321.142 131.659 321.839 131.779 322.69 131.779C323.857 131.779 324.822 131.495 325.584 130.925C326.346 130.362 326.727 129.462 326.727 128.227V125.116H326.531C326.346 125.453 326.078 125.827 325.728 126.239C325.385 126.651 324.911 127.008 324.307 127.31C323.703 127.612 322.917 127.763 321.949 127.763C320.699 127.763 319.573 127.471 318.571 126.888C317.575 126.297 316.786 125.429 316.202 124.282C315.625 123.129 315.337 121.711 315.337 120.029C315.337 118.347 315.622 116.905 316.192 115.704C316.768 114.502 317.558 113.582 318.56 112.944C319.563 112.299 320.699 111.976 321.969 111.976C322.951 111.976 323.744 112.141 324.348 112.47C324.952 112.793 325.422 113.17 325.759 113.603C326.102 114.036 326.366 114.417 326.552 114.746H326.778V112.182H329.796V128.35C329.796 129.71 329.48 130.825 328.848 131.697C328.217 132.569 327.362 133.214 326.284 133.633C325.213 134.052 324.005 134.261 322.659 134.261ZM322.628 125.209C323.514 125.209 324.262 125.003 324.873 124.591C325.491 124.172 325.958 123.575 326.274 122.799C326.596 122.017 326.758 121.08 326.758 119.988C326.758 118.924 326.6 117.987 326.284 117.176C325.968 116.366 325.505 115.735 324.894 115.282C324.283 114.822 323.528 114.592 322.628 114.592C321.701 114.592 320.929 114.832 320.311 115.312C319.693 115.786 319.226 116.432 318.911 117.249C318.602 118.066 318.447 118.979 318.447 119.988C318.447 121.025 318.605 121.934 318.921 122.717C319.237 123.5 319.703 124.111 320.321 124.55C320.946 124.989 321.715 125.209 322.628 125.209ZM340.743 128.319C339.184 128.319 337.842 127.986 336.716 127.32C335.597 126.647 334.732 125.703 334.121 124.488C333.517 123.266 333.215 121.835 333.215 120.194C333.215 118.574 333.517 117.146 334.121 115.91C334.732 114.674 335.583 113.709 336.675 113.016C337.774 112.323 339.057 111.976 340.527 111.976C341.419 111.976 342.284 112.123 343.122 112.419C343.959 112.714 344.711 113.177 345.377 113.809C346.043 114.441 346.568 115.261 346.953 116.27C347.337 117.273 347.529 118.491 347.529 119.926V121.018H334.955V118.711H344.512C344.512 117.901 344.347 117.183 344.018 116.559C343.688 115.927 343.225 115.429 342.627 115.065C342.037 114.701 341.344 114.52 340.547 114.52C339.682 114.52 338.927 114.732 338.282 115.158C337.643 115.577 337.149 116.126 336.799 116.806C336.455 117.479 336.284 118.21 336.284 118.999V120.801C336.284 121.859 336.469 122.758 336.84 123.5C337.217 124.241 337.743 124.808 338.415 125.199C339.088 125.583 339.874 125.776 340.774 125.776C341.357 125.776 341.889 125.693 342.37 125.528C342.851 125.357 343.266 125.103 343.616 124.766C343.966 124.43 344.234 124.015 344.419 123.52L347.334 124.045C347.1 124.904 346.682 125.655 346.077 126.301C345.48 126.939 344.728 127.437 343.822 127.794C342.923 128.144 341.896 128.319 340.743 128.319ZM361.7 118.608V128H358.621V106.909H361.659V114.756H361.854C362.225 113.905 362.792 113.229 363.554 112.728C364.316 112.226 365.311 111.976 366.54 111.976C367.625 111.976 368.572 112.199 369.382 112.645C370.199 113.092 370.831 113.757 371.277 114.643C371.73 115.522 371.957 116.62 371.957 117.939V128H368.878V118.309C368.878 117.149 368.579 116.25 367.982 115.611C367.385 114.966 366.554 114.643 365.49 114.643C364.762 114.643 364.11 114.798 363.533 115.107C362.963 115.415 362.513 115.869 362.184 116.466C361.861 117.056 361.7 117.77 361.7 118.608ZM382.884 128.319C381.325 128.319 379.983 127.986 378.857 127.32C377.738 126.647 376.873 125.703 376.262 124.488C375.658 123.266 375.355 121.835 375.355 120.194C375.355 118.574 375.658 117.146 376.262 115.91C376.873 114.674 377.724 113.709 378.816 113.016C379.914 112.323 381.198 111.976 382.667 111.976C383.56 111.976 384.425 112.123 385.262 112.419C386.1 112.714 386.852 113.177 387.518 113.809C388.184 114.441 388.709 115.261 389.093 116.27C389.478 117.273 389.67 118.491 389.67 119.926V121.018H377.096V118.711H386.653C386.653 117.901 386.488 117.183 386.158 116.559C385.829 115.927 385.365 115.429 384.768 115.065C384.178 114.701 383.484 114.52 382.688 114.52C381.823 114.52 381.068 114.732 380.422 115.158C379.784 115.577 379.289 116.126 378.939 116.806C378.596 117.479 378.424 118.21 378.424 118.999V120.801C378.424 121.859 378.61 122.758 378.98 123.5C379.358 124.241 379.883 124.808 380.556 125.199C381.229 125.583 382.015 125.776 382.914 125.776C383.498 125.776 384.03 125.693 384.511 125.528C384.991 125.357 385.407 125.103 385.757 124.766C386.107 124.43 386.375 124.015 386.56 123.52L389.474 124.045C389.241 124.904 388.822 125.655 388.218 126.301C387.621 126.939 386.869 127.437 385.963 127.794C385.063 128.144 384.037 128.319 382.884 128.319ZM393.087 128V112.182H396.063V114.695H396.228C396.516 113.843 397.024 113.174 397.752 112.686C398.486 112.192 399.317 111.945 400.244 111.945C400.436 111.945 400.663 111.952 400.924 111.966C401.191 111.979 401.401 111.996 401.552 112.017V114.962C401.428 114.928 401.208 114.89 400.893 114.849C400.577 114.801 400.261 114.777 399.945 114.777C399.217 114.777 398.569 114.931 397.999 115.24C397.436 115.542 396.99 115.965 396.66 116.507C396.331 117.043 396.166 117.654 396.166 118.34V128H393.087ZM410.468 128.319C408.909 128.319 407.567 127.986 406.441 127.32C405.322 126.647 404.457 125.703 403.846 124.488C403.242 123.266 402.939 121.835 402.939 120.194C402.939 118.574 403.242 117.146 403.846 115.91C404.457 114.674 405.308 113.709 406.4 113.016C407.498 112.323 408.782 111.976 410.251 111.976C411.144 111.976 412.009 112.123 412.846 112.419C413.684 112.714 414.436 113.177 415.102 113.809C415.768 114.441 416.293 115.261 416.677 116.27C417.062 117.273 417.254 118.491 417.254 119.926V121.018H404.68V118.711H414.237C414.237 117.901 414.072 117.183 413.742 116.559C413.413 115.927 412.949 115.429 412.352 115.065C411.762 114.701 411.068 114.52 410.272 114.52C409.407 114.52 408.652 114.732 408.006 115.158C407.368 115.577 406.873 116.126 406.523 116.806C406.18 117.479 406.008 118.21 406.008 118.999V120.801C406.008 121.859 406.194 122.758 406.564 123.5C406.942 124.241 407.467 124.808 408.14 125.199C408.813 125.583 409.599 125.776 410.498 125.776C411.082 125.776 411.614 125.693 412.095 125.528C412.575 125.357 412.991 125.103 413.341 124.766C413.691 124.43 413.959 124.015 414.144 123.52L417.058 124.045C416.825 124.904 416.406 125.655 415.802 126.301C415.205 126.939 414.453 127.437 413.547 127.794C412.647 128.144 411.621 128.319 410.468 128.319Z" fill="#7E7E7E"/>
</svg>
